<mxfile host="app.diagrams.net" modified="2023-09-24T04:13:50.930Z" agent="Mozilla/5.0 (Macintosh; Intel Mac OS X 10_15_7) AppleWebKit/537.36 (KHTML, like Gecko) Chrome/117.0.0.0 Safari/537.36" etag="uydB-yVsU7_4n_4mtTc4" version="21.8.1" type="github">
  <diagram name="Page-1" id="761z_7gPbI_x4PjvxEGX">
    <mxGraphModel dx="792" dy="449" grid="1" gridSize="10" guides="1" tooltips="1" connect="1" arrows="1" fold="1" page="1" pageScale="1" pageWidth="850" pageHeight="1100" math="0" shadow="0">
      <root>
        <mxCell id="0" />
        <mxCell id="1" parent="0" />
        <mxCell id="tsiH8fYGeirmPtwqVK2P-9" style="edgeStyle=orthogonalEdgeStyle;rounded=0;orthogonalLoop=1;jettySize=auto;html=1;exitX=0;exitY=1;exitDx=0;exitDy=0;" edge="1" parent="1" source="tsiH8fYGeirmPtwqVK2P-1" target="tsiH8fYGeirmPtwqVK2P-6">
          <mxGeometry relative="1" as="geometry" />
        </mxCell>
        <mxCell id="tsiH8fYGeirmPtwqVK2P-10" value="(o, x)" style="edgeLabel;html=1;align=center;verticalAlign=middle;resizable=0;points=[];" vertex="1" connectable="0" parent="tsiH8fYGeirmPtwqVK2P-9">
          <mxGeometry x="-0.0872" y="-1" relative="1" as="geometry">
            <mxPoint x="-113" y="30" as="offset" />
          </mxGeometry>
        </mxCell>
        <mxCell id="tsiH8fYGeirmPtwqVK2P-13" style="edgeStyle=orthogonalEdgeStyle;rounded=0;orthogonalLoop=1;jettySize=auto;html=1;exitX=1;exitY=1;exitDx=0;exitDy=0;" edge="1" parent="1" source="tsiH8fYGeirmPtwqVK2P-1" target="tsiH8fYGeirmPtwqVK2P-7">
          <mxGeometry relative="1" as="geometry">
            <Array as="points">
              <mxPoint x="565" y="91" />
            </Array>
          </mxGeometry>
        </mxCell>
        <mxCell id="tsiH8fYGeirmPtwqVK2P-16" value="(B, x)" style="edgeLabel;html=1;align=center;verticalAlign=middle;resizable=0;points=[];" vertex="1" connectable="0" parent="tsiH8fYGeirmPtwqVK2P-13">
          <mxGeometry x="0.5724" y="-1" relative="1" as="geometry">
            <mxPoint x="1" y="-18" as="offset" />
          </mxGeometry>
        </mxCell>
        <mxCell id="tsiH8fYGeirmPtwqVK2P-14" style="edgeStyle=orthogonalEdgeStyle;rounded=0;orthogonalLoop=1;jettySize=auto;html=1;exitX=1;exitY=1;exitDx=0;exitDy=0;entryX=0.5;entryY=0;entryDx=0;entryDy=0;" edge="1" parent="1" source="tsiH8fYGeirmPtwqVK2P-1" target="tsiH8fYGeirmPtwqVK2P-15">
          <mxGeometry relative="1" as="geometry">
            <mxPoint x="690" y="160" as="targetPoint" />
          </mxGeometry>
        </mxCell>
        <mxCell id="tsiH8fYGeirmPtwqVK2P-17" value="(L, x)" style="edgeLabel;html=1;align=center;verticalAlign=middle;resizable=0;points=[];" vertex="1" connectable="0" parent="tsiH8fYGeirmPtwqVK2P-14">
          <mxGeometry x="0.7068" y="1" relative="1" as="geometry">
            <mxPoint x="-1" y="6" as="offset" />
          </mxGeometry>
        </mxCell>
        <mxCell id="tsiH8fYGeirmPtwqVK2P-46" style="edgeStyle=orthogonalEdgeStyle;rounded=0;orthogonalLoop=1;jettySize=auto;html=1;exitX=0;exitY=1;exitDx=0;exitDy=0;" edge="1" parent="1" source="tsiH8fYGeirmPtwqVK2P-1" target="tsiH8fYGeirmPtwqVK2P-8">
          <mxGeometry relative="1" as="geometry" />
        </mxCell>
        <mxCell id="tsiH8fYGeirmPtwqVK2P-47" value="(e,x)" style="edgeLabel;html=1;align=center;verticalAlign=middle;resizable=0;points=[];" vertex="1" connectable="0" parent="tsiH8fYGeirmPtwqVK2P-46">
          <mxGeometry x="0.5053" y="-1" relative="1" as="geometry">
            <mxPoint as="offset" />
          </mxGeometry>
        </mxCell>
        <mxCell id="tsiH8fYGeirmPtwqVK2P-1" value="Start State" style="ellipse;whiteSpace=wrap;html=1;" vertex="1" parent="1">
          <mxGeometry x="440" y="40" width="80" height="60" as="geometry" />
        </mxCell>
        <mxCell id="tsiH8fYGeirmPtwqVK2P-18" style="edgeStyle=orthogonalEdgeStyle;rounded=0;orthogonalLoop=1;jettySize=auto;html=1;exitX=0;exitY=1;exitDx=0;exitDy=0;entryX=0.5;entryY=0;entryDx=0;entryDy=0;" edge="1" parent="1" source="tsiH8fYGeirmPtwqVK2P-6" target="tsiH8fYGeirmPtwqVK2P-22">
          <mxGeometry relative="1" as="geometry">
            <mxPoint x="110" y="240" as="targetPoint" />
          </mxGeometry>
        </mxCell>
        <mxCell id="tsiH8fYGeirmPtwqVK2P-25" value="(d, p)" style="edgeLabel;html=1;align=center;verticalAlign=middle;resizable=0;points=[];" vertex="1" connectable="0" parent="tsiH8fYGeirmPtwqVK2P-18">
          <mxGeometry x="0.4313" relative="1" as="geometry">
            <mxPoint as="offset" />
          </mxGeometry>
        </mxCell>
        <mxCell id="tsiH8fYGeirmPtwqVK2P-20" style="edgeStyle=orthogonalEdgeStyle;rounded=0;orthogonalLoop=1;jettySize=auto;html=1;exitX=0.5;exitY=1;exitDx=0;exitDy=0;entryX=0.5;entryY=0;entryDx=0;entryDy=0;" edge="1" parent="1" source="tsiH8fYGeirmPtwqVK2P-6" target="tsiH8fYGeirmPtwqVK2P-23">
          <mxGeometry relative="1" as="geometry">
            <mxPoint x="185.27272727272725" y="240" as="targetPoint" />
          </mxGeometry>
        </mxCell>
        <mxCell id="tsiH8fYGeirmPtwqVK2P-26" value="(A, p)" style="edgeLabel;html=1;align=center;verticalAlign=middle;resizable=0;points=[];" vertex="1" connectable="0" parent="tsiH8fYGeirmPtwqVK2P-20">
          <mxGeometry x="-0.253" y="-2" relative="1" as="geometry">
            <mxPoint as="offset" />
          </mxGeometry>
        </mxCell>
        <mxCell id="tsiH8fYGeirmPtwqVK2P-21" style="edgeStyle=orthogonalEdgeStyle;rounded=0;orthogonalLoop=1;jettySize=auto;html=1;exitX=1;exitY=1;exitDx=0;exitDy=0;entryX=0.5;entryY=0;entryDx=0;entryDy=0;" edge="1" parent="1" source="tsiH8fYGeirmPtwqVK2P-6" target="tsiH8fYGeirmPtwqVK2P-24">
          <mxGeometry relative="1" as="geometry">
            <mxPoint x="250" y="240" as="targetPoint" />
          </mxGeometry>
        </mxCell>
        <mxCell id="tsiH8fYGeirmPtwqVK2P-27" value="(K, p)" style="edgeLabel;html=1;align=center;verticalAlign=middle;resizable=0;points=[];" vertex="1" connectable="0" parent="tsiH8fYGeirmPtwqVK2P-21">
          <mxGeometry x="0.3905" relative="1" as="geometry">
            <mxPoint as="offset" />
          </mxGeometry>
        </mxCell>
        <mxCell id="tsiH8fYGeirmPtwqVK2P-6" value="" style="ellipse;whiteSpace=wrap;html=1;" vertex="1" parent="1">
          <mxGeometry x="160" y="160" width="50" height="40" as="geometry" />
        </mxCell>
        <mxCell id="tsiH8fYGeirmPtwqVK2P-7" value="" style="ellipse;whiteSpace=wrap;html=1;" vertex="1" parent="1">
          <mxGeometry x="540" y="160" width="50" height="40" as="geometry" />
        </mxCell>
        <mxCell id="tsiH8fYGeirmPtwqVK2P-8" value="" style="ellipse;whiteSpace=wrap;html=1;" vertex="1" parent="1">
          <mxGeometry x="350" y="160" width="50" height="40" as="geometry" />
        </mxCell>
        <mxCell id="tsiH8fYGeirmPtwqVK2P-15" value="" style="ellipse;whiteSpace=wrap;html=1;" vertex="1" parent="1">
          <mxGeometry x="730" y="160" width="50" height="40" as="geometry" />
        </mxCell>
        <mxCell id="tsiH8fYGeirmPtwqVK2P-22" value="" style="ellipse;whiteSpace=wrap;html=1;" vertex="1" parent="1">
          <mxGeometry x="100" y="240" width="50" height="40" as="geometry" />
        </mxCell>
        <mxCell id="tsiH8fYGeirmPtwqVK2P-23" value="" style="ellipse;whiteSpace=wrap;html=1;" vertex="1" parent="1">
          <mxGeometry x="160" y="240" width="50" height="40" as="geometry" />
        </mxCell>
        <mxCell id="tsiH8fYGeirmPtwqVK2P-24" value="" style="ellipse;whiteSpace=wrap;html=1;" vertex="1" parent="1">
          <mxGeometry x="220" y="240" width="50" height="40" as="geometry" />
        </mxCell>
        <mxCell id="tsiH8fYGeirmPtwqVK2P-28" style="edgeStyle=orthogonalEdgeStyle;rounded=0;orthogonalLoop=1;jettySize=auto;html=1;exitX=0;exitY=1;exitDx=0;exitDy=0;entryX=0.5;entryY=0;entryDx=0;entryDy=0;" edge="1" parent="1" target="tsiH8fYGeirmPtwqVK2P-34" source="tsiH8fYGeirmPtwqVK2P-8">
          <mxGeometry relative="1" as="geometry">
            <mxPoint x="300" y="240" as="targetPoint" />
            <mxPoint x="357" y="194" as="sourcePoint" />
          </mxGeometry>
        </mxCell>
        <mxCell id="tsiH8fYGeirmPtwqVK2P-29" value="(h, j)" style="edgeLabel;html=1;align=center;verticalAlign=middle;resizable=0;points=[];" vertex="1" connectable="0" parent="tsiH8fYGeirmPtwqVK2P-28">
          <mxGeometry x="0.4313" relative="1" as="geometry">
            <mxPoint as="offset" />
          </mxGeometry>
        </mxCell>
        <mxCell id="tsiH8fYGeirmPtwqVK2P-30" style="edgeStyle=orthogonalEdgeStyle;rounded=0;orthogonalLoop=1;jettySize=auto;html=1;exitX=0.5;exitY=1;exitDx=0;exitDy=0;entryX=0.5;entryY=0;entryDx=0;entryDy=0;" edge="1" parent="1" target="tsiH8fYGeirmPtwqVK2P-35" source="tsiH8fYGeirmPtwqVK2P-8">
          <mxGeometry relative="1" as="geometry">
            <mxPoint x="375.27272727272725" y="240" as="targetPoint" />
            <mxPoint x="375" y="200" as="sourcePoint" />
          </mxGeometry>
        </mxCell>
        <mxCell id="tsiH8fYGeirmPtwqVK2P-31" value="(l, j)" style="edgeLabel;html=1;align=center;verticalAlign=middle;resizable=0;points=[];" vertex="1" connectable="0" parent="tsiH8fYGeirmPtwqVK2P-30">
          <mxGeometry x="-0.253" y="-2" relative="1" as="geometry">
            <mxPoint as="offset" />
          </mxGeometry>
        </mxCell>
        <mxCell id="tsiH8fYGeirmPtwqVK2P-32" style="edgeStyle=orthogonalEdgeStyle;rounded=0;orthogonalLoop=1;jettySize=auto;html=1;exitX=1;exitY=1;exitDx=0;exitDy=0;entryX=0.5;entryY=0;entryDx=0;entryDy=0;" edge="1" parent="1" target="tsiH8fYGeirmPtwqVK2P-36" source="tsiH8fYGeirmPtwqVK2P-8">
          <mxGeometry relative="1" as="geometry">
            <mxPoint x="440" y="240" as="targetPoint" />
            <mxPoint x="393" y="194" as="sourcePoint" />
          </mxGeometry>
        </mxCell>
        <mxCell id="tsiH8fYGeirmPtwqVK2P-33" value="(G, j)" style="edgeLabel;html=1;align=center;verticalAlign=middle;resizable=0;points=[];" vertex="1" connectable="0" parent="tsiH8fYGeirmPtwqVK2P-32">
          <mxGeometry x="0.3905" relative="1" as="geometry">
            <mxPoint as="offset" />
          </mxGeometry>
        </mxCell>
        <mxCell id="tsiH8fYGeirmPtwqVK2P-34" value="" style="ellipse;whiteSpace=wrap;html=1;" vertex="1" parent="1">
          <mxGeometry x="290" y="240" width="50" height="40" as="geometry" />
        </mxCell>
        <mxCell id="tsiH8fYGeirmPtwqVK2P-35" value="" style="ellipse;whiteSpace=wrap;html=1;" vertex="1" parent="1">
          <mxGeometry x="350" y="240" width="50" height="40" as="geometry" />
        </mxCell>
        <mxCell id="tsiH8fYGeirmPtwqVK2P-36" value="" style="ellipse;whiteSpace=wrap;html=1;" vertex="1" parent="1">
          <mxGeometry x="410" y="240" width="50" height="40" as="geometry" />
        </mxCell>
        <mxCell id="tsiH8fYGeirmPtwqVK2P-37" style="edgeStyle=orthogonalEdgeStyle;rounded=0;orthogonalLoop=1;jettySize=auto;html=1;exitX=0;exitY=1;exitDx=0;exitDy=0;entryX=0.5;entryY=0;entryDx=0;entryDy=0;" edge="1" parent="1" target="tsiH8fYGeirmPtwqVK2P-43" source="tsiH8fYGeirmPtwqVK2P-7">
          <mxGeometry relative="1" as="geometry">
            <mxPoint x="490" y="240" as="targetPoint" />
            <mxPoint x="547" y="194" as="sourcePoint" />
          </mxGeometry>
        </mxCell>
        <mxCell id="tsiH8fYGeirmPtwqVK2P-38" value="(p, A)" style="edgeLabel;html=1;align=center;verticalAlign=middle;resizable=0;points=[];" vertex="1" connectable="0" parent="tsiH8fYGeirmPtwqVK2P-37">
          <mxGeometry x="0.4313" relative="1" as="geometry">
            <mxPoint as="offset" />
          </mxGeometry>
        </mxCell>
        <mxCell id="tsiH8fYGeirmPtwqVK2P-39" style="edgeStyle=orthogonalEdgeStyle;rounded=0;orthogonalLoop=1;jettySize=auto;html=1;exitX=0.5;exitY=1;exitDx=0;exitDy=0;entryX=0.5;entryY=0;entryDx=0;entryDy=0;" edge="1" parent="1" target="tsiH8fYGeirmPtwqVK2P-44" source="tsiH8fYGeirmPtwqVK2P-7">
          <mxGeometry relative="1" as="geometry">
            <mxPoint x="565.2727272727273" y="240" as="targetPoint" />
            <mxPoint x="565" y="200" as="sourcePoint" />
          </mxGeometry>
        </mxCell>
        <mxCell id="tsiH8fYGeirmPtwqVK2P-40" value="(f, A)" style="edgeLabel;html=1;align=center;verticalAlign=middle;resizable=0;points=[];" vertex="1" connectable="0" parent="tsiH8fYGeirmPtwqVK2P-39">
          <mxGeometry x="-0.253" y="-2" relative="1" as="geometry">
            <mxPoint as="offset" />
          </mxGeometry>
        </mxCell>
        <mxCell id="tsiH8fYGeirmPtwqVK2P-41" style="edgeStyle=orthogonalEdgeStyle;rounded=0;orthogonalLoop=1;jettySize=auto;html=1;exitX=1;exitY=1;exitDx=0;exitDy=0;entryX=0.5;entryY=0;entryDx=0;entryDy=0;" edge="1" parent="1" target="tsiH8fYGeirmPtwqVK2P-45" source="tsiH8fYGeirmPtwqVK2P-7">
          <mxGeometry relative="1" as="geometry">
            <mxPoint x="630" y="240" as="targetPoint" />
            <mxPoint x="583" y="194" as="sourcePoint" />
          </mxGeometry>
        </mxCell>
        <mxCell id="tsiH8fYGeirmPtwqVK2P-42" value="(M, A)" style="edgeLabel;html=1;align=center;verticalAlign=middle;resizable=0;points=[];" vertex="1" connectable="0" parent="tsiH8fYGeirmPtwqVK2P-41">
          <mxGeometry x="0.3905" relative="1" as="geometry">
            <mxPoint as="offset" />
          </mxGeometry>
        </mxCell>
        <mxCell id="tsiH8fYGeirmPtwqVK2P-43" value="" style="ellipse;whiteSpace=wrap;html=1;" vertex="1" parent="1">
          <mxGeometry x="480" y="240" width="50" height="40" as="geometry" />
        </mxCell>
        <mxCell id="tsiH8fYGeirmPtwqVK2P-44" value="" style="ellipse;whiteSpace=wrap;html=1;" vertex="1" parent="1">
          <mxGeometry x="540" y="240" width="50" height="40" as="geometry" />
        </mxCell>
        <mxCell id="tsiH8fYGeirmPtwqVK2P-45" value="" style="ellipse;whiteSpace=wrap;html=1;" vertex="1" parent="1">
          <mxGeometry x="600" y="240" width="50" height="40" as="geometry" />
        </mxCell>
        <mxCell id="tsiH8fYGeirmPtwqVK2P-48" style="edgeStyle=orthogonalEdgeStyle;rounded=0;orthogonalLoop=1;jettySize=auto;html=1;exitX=0;exitY=1;exitDx=0;exitDy=0;entryX=0.5;entryY=0;entryDx=0;entryDy=0;" edge="1" parent="1" target="tsiH8fYGeirmPtwqVK2P-54">
          <mxGeometry relative="1" as="geometry">
            <mxPoint x="680" y="240" as="targetPoint" />
            <mxPoint x="737" y="194" as="sourcePoint" />
          </mxGeometry>
        </mxCell>
        <mxCell id="tsiH8fYGeirmPtwqVK2P-49" value="(E, G)" style="edgeLabel;html=1;align=center;verticalAlign=middle;resizable=0;points=[];" vertex="1" connectable="0" parent="tsiH8fYGeirmPtwqVK2P-48">
          <mxGeometry x="0.4313" relative="1" as="geometry">
            <mxPoint as="offset" />
          </mxGeometry>
        </mxCell>
        <mxCell id="tsiH8fYGeirmPtwqVK2P-50" style="edgeStyle=orthogonalEdgeStyle;rounded=0;orthogonalLoop=1;jettySize=auto;html=1;exitX=0.5;exitY=1;exitDx=0;exitDy=0;entryX=0.5;entryY=0;entryDx=0;entryDy=0;" edge="1" parent="1" target="tsiH8fYGeirmPtwqVK2P-55">
          <mxGeometry relative="1" as="geometry">
            <mxPoint x="755.2727272727273" y="240" as="targetPoint" />
            <mxPoint x="755" y="200" as="sourcePoint" />
          </mxGeometry>
        </mxCell>
        <mxCell id="tsiH8fYGeirmPtwqVK2P-51" value="(j, G)" style="edgeLabel;html=1;align=center;verticalAlign=middle;resizable=0;points=[];" vertex="1" connectable="0" parent="tsiH8fYGeirmPtwqVK2P-50">
          <mxGeometry x="-0.253" y="-2" relative="1" as="geometry">
            <mxPoint as="offset" />
          </mxGeometry>
        </mxCell>
        <mxCell id="tsiH8fYGeirmPtwqVK2P-52" style="edgeStyle=orthogonalEdgeStyle;rounded=0;orthogonalLoop=1;jettySize=auto;html=1;exitX=1;exitY=1;exitDx=0;exitDy=0;entryX=0.5;entryY=0;entryDx=0;entryDy=0;" edge="1" parent="1" target="tsiH8fYGeirmPtwqVK2P-56">
          <mxGeometry relative="1" as="geometry">
            <mxPoint x="820" y="240" as="targetPoint" />
            <mxPoint x="773" y="194" as="sourcePoint" />
          </mxGeometry>
        </mxCell>
        <mxCell id="tsiH8fYGeirmPtwqVK2P-53" value="(I, G)" style="edgeLabel;html=1;align=center;verticalAlign=middle;resizable=0;points=[];" vertex="1" connectable="0" parent="tsiH8fYGeirmPtwqVK2P-52">
          <mxGeometry x="0.3905" relative="1" as="geometry">
            <mxPoint as="offset" />
          </mxGeometry>
        </mxCell>
        <mxCell id="tsiH8fYGeirmPtwqVK2P-54" value="" style="ellipse;whiteSpace=wrap;html=1;" vertex="1" parent="1">
          <mxGeometry x="670" y="240" width="50" height="40" as="geometry" />
        </mxCell>
        <mxCell id="tsiH8fYGeirmPtwqVK2P-55" value="" style="ellipse;whiteSpace=wrap;html=1;" vertex="1" parent="1">
          <mxGeometry x="730" y="240" width="50" height="40" as="geometry" />
        </mxCell>
        <mxCell id="tsiH8fYGeirmPtwqVK2P-56" value="" style="ellipse;whiteSpace=wrap;html=1;" vertex="1" parent="1">
          <mxGeometry x="790" y="240" width="50" height="40" as="geometry" />
        </mxCell>
      </root>
    </mxGraphModel>
  </diagram>
</mxfile>
